<svg id="dark" xmlns="http://www.w3.org/2000/svg" viewBox="0 0 615.1 159.1"><style>.st0{stroke:#fff;stroke-width:2;stroke-miterlimit:10}.st0,.st1{fill:#fff}</style><path class="st0" d="M152.4 45.8c0 6-1.8 10.8-5.3 14.3-4 4.2-9.3 6.4-15.8 6.4-6.2 0-11.5-2.2-15.8-6.5s-6.5-9.6-6.5-16c0-6.3 2.2-11.6 6.5-16 4.3-4.3 9.6-6.5 15.8-6.5 3.2 0 6.1.6 8.9 1.7 2.8 1.1 5.1 2.7 6.9 4.7l-4 4c-1.3-1.6-3-2.9-5.1-3.8s-4.4-1.4-6.8-1.4c-4.7 0-8.6 1.6-11.9 4.9-3.2 3.3-4.8 7.4-4.8 12.3s1.6 9 4.8 12.3c3.2 3.2 7.2 4.9 11.9 4.9 4.3 0 7.8-1.2 10.7-3.6 2.8-2.4 4.5-5.7 4.9-9.9h-15.6v-5H152c.3 1.1.4 2.2.4 3.2zm6.7 19.7V22.6h13.1c6.6 0 11.8 2 15.8 5.9 4 4 6 9.1 6 15.5s-2 11.6-6 15.6c-4 3.9-9.3 5.9-15.8 5.9h-13.1zm5.5-37.6v32.4h7.6c5 0 8.9-1.4 11.8-4.3 2.9-2.9 4.3-6.8 4.3-11.9 0-5-1.4-9-4.3-11.9-2.9-2.9-6.8-4.3-11.8-4.3h-7.6zm77.3 17.9c0 6-1.8 10.8-5.3 14.3-4 4.2-9.3 6.4-15.8 6.4-6.2 0-11.5-2.2-15.8-6.5s-6.5-9.6-6.5-16c0-6.3 2.2-11.6 6.5-16 4.3-4.3 9.6-6.5 15.8-6.5 3.2 0 6.1.6 8.9 1.7 2.8 1.1 5.1 2.7 6.9 4.7l-4 4c-1.3-1.6-3-2.9-5.1-3.8s-4.4-1.4-6.8-1.4c-4.7 0-8.6 1.6-11.9 4.9-3.2 3.3-4.8 7.4-4.8 12.3s1.6 9 4.8 12.3c3.2 3.2 7.2 4.9 11.9 4.9 4.3 0 7.8-1.2 10.7-3.6 2.8-2.4 4.5-5.7 4.9-9.9h-15.6v-5h20.8c.3 1.1.4 2.2.4 3.2zm25.4 19.7h-5.5V22.6h6.7L289.4 56h.2l-.2-8.3V22.6h5.5v43h-5.8l-21.8-35h-.2l.2 8.3v26.6zm33.6-14.7c0-4.5 1.4-8.3 4.3-11.2 2.9-3 6.5-4.4 10.9-4.4s8 1.5 10.8 4.4c2.9 3 4.3 6.7 4.3 11.2 0 4.6-1.4 8.3-4.3 11.2-2.8 3-6.4 4.4-10.8 4.4s-8-1.5-10.9-4.4c-2.9-2.9-4.3-6.6-4.3-11.2zm5.5 0c0 3.2.9 5.7 2.8 7.7 1.8 2 4.1 2.9 6.8 2.9s5-1 6.8-2.9c1.8-2 2.8-4.5 2.8-7.7 0-3.1-.9-5.7-2.8-7.6-1.9-2-4.2-3-6.8-3s-5 1-6.8 3-2.8 4.5-2.8 7.6zm29.2-14.7h5.3v4.8h.2c1.6-3.8 5-5.6 10.1-5.6l1.1.1v5.8l-2.5-.2c-2.6 0-4.7.8-6.3 2.4-1.7 1.6-2.5 3.6-2.5 6v16.2h-5.5l.1-29.5zM370 66c-2.4 0-4.4-.7-6-2.2s-2.4-3.5-2.4-6.2V41.2h-5.2v-5h5.2v-9h5.5v9h7.2v5h-7.2v14.6c0 2 .4 3.3 1.1 4 .8.7 1.6 1 2.6 1 .4 0 .9 0 1.3-.1s.8-.2 1.2-.4l1.7 4.9c-1.4.6-3 .8-5 .8zm9.9-43.4h5.5v13.6l-.2 4.1h.2c.8-1.4 2.1-2.6 3.9-3.6s3.5-1.4 5.4-1.4c3.6 0 6.4 1 8.3 3.1s2.9 5 2.9 8.8v18.5h-5.5V48.1c0-5.3-2.3-7.9-7-7.9-2.2 0-4.1.9-5.7 2.8-1.5 1.9-2.3 4-2.3 6.5v16h-5.5V22.6zm65.7 43.9c-6.4 0-11.7-2.1-16-6.4-4.2-4.3-6.4-9.6-6.4-16s2.1-11.7 6.4-16c4.2-4.3 9.6-6.5 16-6.5 6.5 0 11.7 2.3 15.8 7l-4 3.8c-3.1-3.7-7-5.6-11.8-5.6s-8.7 1.6-11.9 4.8c-3.2 3.2-4.7 7.3-4.7 12.4s1.6 9.2 4.7 12.4c3.2 3.2 7.2 4.8 11.9 4.8 5 0 9.3-2.1 13-6.3l4 3.9c-2 2.4-4.5 4.3-7.5 5.7-2.9 1.3-6.1 2-9.5 2zm34.6 0c-4.3 0-7.9-1.5-10.7-4.4-2.8-3-4.2-6.7-4.2-11.2s1.4-8.2 4.1-11.2c2.7-3 6.2-4.5 10.4-4.5 4.4 0 7.8 1.4 10.4 4.2 2.6 2.8 3.9 6.8 3.9 11.9l-.1.6h-23.1c.1 2.9 1 5.2 2.9 7 1.8 1.8 4 2.6 6.6 2.6 3.5 0 6.3-1.8 8.3-5.3l4.9 2.4c-1.3 2.5-3.2 4.4-5.5 5.8-2.3 1.4-4.9 2.1-7.9 2.1zm-8.8-19.2h16.9c-.2-2-1-3.7-2.5-5.1-1.5-1.3-3.5-2-6-2-2.1 0-3.9.6-5.4 1.9s-2.5 3-3 5.2zm27.8-11.2h5.3v4.1h.2c.8-1.4 2.1-2.6 3.9-3.6s3.5-1.4 5.4-1.4c3.6 0 6.4 1 8.3 3.1 1.9 2.1 2.9 5 2.9 8.8v18.5h-5.5V47.4c-.1-4.8-2.5-7.2-7.3-7.2-2.2 0-4 .9-5.5 2.7s-2.2 3.9-2.2 6.4v16.3h-5.5V36.1zM541.8 66c-2.4 0-4.4-.7-6-2.2s-2.4-3.5-2.4-6.2V41.2h-5.1v-5h5.2v-9h5.5v9h7.2v5H539v14.6c0 2 .4 3.3 1.1 4 .8.7 1.6 1 2.6 1 .4 0 .9 0 1.3-.1s.8-.2 1.2-.4l1.7 4.9c-1.5.6-3.2.8-5.1.8zm15.1-.5h-5.5V36.1h5.3v4.8h.2c.6-1.6 1.7-2.9 3.5-4 1.7-1.1 3.5-1.7 5.1-1.7s3 .2 4.1.7l-1.7 5.3c-.7-.3-1.8-.4-3.2-.4-2.1 0-3.9.8-5.4 2.5s-2.3 3.6-2.3 5.9l-.1 16.3zm26.3-30.3c4.1 0 7.3 1.1 9.7 3.3s3.5 5.2 3.5 9v18.1h-5.3v-4.1h-.2c-2.3 3.4-5.3 5-9.1 5-3.2 0-6-1-8.1-2.9-2.2-1.9-3.3-4.3-3.3-7.2 0-3 1.1-5.5 3.5-7.3 2.3-1.8 5.4-2.7 9.2-2.7 3.3 0 6 .6 8.1 1.8v-1.3c0-1.9-.8-3.5-2.3-4.9-1.5-1.3-3.3-2-5.3-2-3.1 0-5.5 1.3-7.3 3.9l-4.9-3.1c2.6-3.7 6.5-5.6 11.8-5.6zM576 56.5c0 1.4.6 2.6 1.8 3.6s2.6 1.4 4.3 1.4c2.3 0 4.4-.9 6.2-2.6s2.7-3.7 2.7-6.1c-1.7-1.4-4.1-2-7.2-2-2.2 0-4.1.5-5.6 1.6s-2.2 2.5-2.2 4.1zm32.1-33.9v43h-5.5v-43h5.5z"/><path class="st1" d="M110.3 125.5V89.7h11c5.5 0 9.9 1.6 13.2 4.9s5 7.6 5 13-1.7 9.7-5 13-7.7 4.9-13.2 4.9h-11zm4.6-31.4v27h6.3c4.2 0 7.5-1.2 9.9-3.6 2.4-2.4 3.6-5.7 3.6-9.9s-1.2-7.5-3.6-9.9c-2.4-2.4-5.7-3.6-9.9-3.6h-6.3zm39.4 32.2c-3.6 0-6.6-1.2-8.9-3.7-2.3-2.5-3.5-5.6-3.5-9.3s1.1-6.8 3.4-9.3c2.3-2.5 5.2-3.7 8.7-3.7 3.6 0 6.5 1.2 8.7 3.5 2.2 2.4 3.2 5.6 3.2 9.9v.5h-19.2c.1 2.4.9 4.3 2.4 5.8s3.4 2.2 5.5 2.2c2.9 0 5.2-1.5 6.9-4.4l4.1 2c-1.1 2.1-2.6 3.7-4.6 4.8-2 1.2-4.2 1.7-6.7 1.7zm-7.3-16h14c-.1-1.7-.8-3.1-2.1-4.2s-2.9-1.7-5-1.7c-1.7 0-3.2.5-4.5 1.6-1.2 1.1-2 2.5-2.4 4.3zm34.5 15.2h-4.6L167 101h5l7.2 19h.1l7.3-19h4.9l-10 24.5zm18.4-15.3v15.4h-4.6V89.8h20.9v4.4h-16.3V106h14.7v4.3l-14.7-.1zm30.2 16.1c-3.6 0-6.6-1.2-8.9-3.7-2.3-2.5-3.5-5.6-3.5-9.3s1.1-6.8 3.4-9.3c2.3-2.5 5.2-3.7 8.7-3.7 3.6 0 6.5 1.2 8.7 3.5 2.2 2.4 3.2 5.6 3.2 9.9v.5h-19.2c.1 2.4.9 4.3 2.4 5.8s3.4 2.2 5.5 2.2c2.9 0 5.2-1.5 6.9-4.4l4.1 2c-1.1 2.1-2.6 3.7-4.6 4.8-2 1.2-4.2 1.7-6.7 1.7zm-7.3-16h14c-.1-1.7-.8-3.1-2.1-4.2s-2.9-1.7-5-1.7c-1.7 0-3.2.5-4.5 1.6-1.2 1.1-2 2.5-2.4 4.3zm42.1 8.4c0 2.1-.9 3.9-2.8 5.4s-4.2 2.2-7 2.2c-2.5 0-4.6-.6-6.5-1.9-1.9-1.3-3.2-3-4-5.1l4.1-1.8c.6 1.5 1.5 2.6 2.6 3.4 1.2.8 2.4 1.2 3.8 1.2 1.5 0 2.7-.3 3.7-1 1-.6 1.5-1.4 1.5-2.2 0-1.6-1.2-2.7-3.6-3.5l-4.2-1c-4.8-1.2-7.1-3.5-7.1-6.9 0-2.2.9-4 2.7-5.4 1.8-1.3 4.1-2 7-2 2.2 0 4.1.5 5.9 1.5s3 2.4 3.7 4.1l-4.1 1.7c-.5-1-1.2-1.8-2.3-2.4-1-.6-2.2-.9-3.5-.9-1.2 0-2.3.3-3.2.9-.9.6-1.4 1.3-1.4 2.2 0 1.4 1.3 2.4 3.9 3l3.7 1c4.7 1.4 7.1 3.8 7.1 7.5zm13.5 7.2c-2 0-3.7-.6-5-1.8s-2-3-2-5.2v-13.7h-4.3V101h4.3v-7.5h4.6v7.5h6v4.2h-6v12.2c0 1.6.3 2.7.9 3.3s1.4.9 2.2.9c.4 0 .7 0 1.1-.1s.7-.2 1-.3l1.5 4.1c-1.3.4-2.7.6-4.3.6zM84 100.6L21.1 0H3.8C.3 0-1 2.4.8 5.3L43 74.1l.2.3 28.6 45.7L84 100.6zm9.7-15.7c1.8-2.9 1.8-7.7 0-10.7L51.1 5.3C49.2 2.4 44.9 0 41.5 0H24l61.4 98.3 8.3-13.4zM58 102.8l-35.2 56.3h18.7c3.4 0 7.8-2.4 9.5-5.3l17-27.5c.1-.1.2-.3.5-.8l1.8-2.9L58 102.8zM43 84.9L.9 153.7c-1.8 2.9-.5 5.3 3 5.3H20l36.6-58.6-12.2-19.6c-.3 1.5-.7 2.9-1.4 4.1z"/></svg>